<?xml version="1.0" encoding="utf-8"?>
<!-- Generator: Adobe Illustrator 16.0.0, SVG Export Plug-In . SVG Version: 6.00 Build 0)  -->
<!DOCTYPE svg PUBLIC "-//W3C//DTD SVG 1.1//EN" "http://www.w3.org/Graphics/SVG/1.1/DTD/svg11.dtd">
<svg version="1.1" id="Layer_1" xmlns="http://www.w3.org/2000/svg" xmlns:xlink="http://www.w3.org/1999/xlink" x="0px" y="0px"
	 width="402px" height="402px" viewBox="0 0 402 402" enable-background="new 0 0 402 402" xml:space="preserve">
<path fill="#3AB44A" d="M334.5,201v-67.5C334.5,59.771,274.73,0,201,0C127.271,0,67.5,59.771,67.5,133.5V201H0v201h402V201H334.5z
	 M165.981,351.75l11.06-51.336c-4.858-5.223-7.834-12.219-7.834-19.914c0-12.143,7.4-22.556,17.936-26.979
	c3.48-1.461,7.303-2.271,11.314-2.271s7.834,0.81,11.314,2.271c10.535,4.424,17.936,14.837,17.936,26.979
	c0,7.695-2.976,14.691-7.834,19.914l11.06,51.336H165.981z M100.5,201v-67.5C100.5,77.996,145.496,33,201,33
	c55.505,0,100.5,44.996,100.5,100.5V201H100.5z"/>
</svg>
